{
  "accessors": [
    {
      "bufferView": 2,
      "componentType": 5126,
      "count": 648,
      "max": [
        1.0566383600234985,
        7.873948097229004,
        1.0405856370925903
      ],
      "min": [
        -0.9929153323173523,
        7.6782379150390625,
        -1.0405857563018799
      ],
      "type": "VEC3"
    },
    {
      "bufferView": 2,
      "byteOffset": 7776,
      "componentType": 5126,
      "count": 648,
      "max": [
        0.9461883902549744,
        0.9828499555587769,
        0.9848082661628723
      ],
      "min": [
        -1.0,
        -0.9828485250473022,
        -0.9848082661628723
      ],
      "type": "VEC3"
    },
    {
      "bufferView": 1,
      "componentType": 5126,
      "count": 648,
      "max": [
        0.9980080723762512,
        0.9246199727058411
      ],
      "min": [
        0.00199203216470778,
        0.0018455489771440625
      ],
      "type": "VEC2"
    },
    {
      "bufferView": 0,
      "componentType": 5125,
      "count": 972,
      "type": "SCALAR"
    },
    {
      "bufferView": 2,
      "byteOffset": 15552,
      "componentType": 5126,
      "count": 259,
      "max": [
        0.14479872584342957,
        18.42365074157715,
        1.1244540214538574
      ],
      "min": [
        -0.14479872584342957,
        11.947710037231445,
        -4.516865253448486
      ],
      "type": "VEC3"
    },
    {
      "bufferView": 2,
      "byteOffset": 18660,
      "componentType": 5126,
      "count": 259,
      "max": [
        1.0,
        0.9998165965080261,
        0.999921977519989
      ],
      "min": [
        -1.0,
        -0.9998186230659485,
        -0.999920666217804
      ],
      "type": "VEC3"
    },
    {
      "bufferView": 1,
      "byteOffset": 5184,
      "componentType": 5126,
      "count": 259,
      "max": [
        0.917487621307373,
        0.9980080723762512
      ],
      "min": [
        0.0018313126638531685,
        0.00199203216470778
      ],
      "type": "VEC2"
    },
    {
      "bufferView": 0,
      "byteOffset": 3888,
      "componentType": 5125,
      "count": 654,
      "type": "SCALAR"
    },
    {
      "bufferView": 2,
      "byteOffset": 21768,
      "componentType": 5126,
      "count": 8136,
      "max": [
        4.228400707244873,
        15.51909351348877,
        1.1125503778457642
      ],
      "min": [
        -4.228400707244873,
        5.003231048583984,
        -1.0784152746200562
      ],
      "type": "VEC3"
    },
    {
      "bufferView": 2,
      "byteOffset": 119400,
      "componentType": 5126,
      "count": 8136,
      "max": [
        0.9999816417694092,
        0.9995521903038025,
        1.0
      ],
      "min": [
        -0.9999815821647644,
        -0.9999350905418396,
        -1.0
      ],
      "type": "VEC3"
    },
    {
      "bufferView": 1,
      "byteOffset": 7256,
      "componentType": 5126,
      "count": 8136,
      "max": [
        0.9991112351417542,
        1.0
      ],
      "min": [
        0.0,
        0.0
      ],
      "type": "VEC2"
    },
    {
      "bufferView": 0,
      "byteOffset": 6504,
      "componentType": 5125,
      "count": 20988,
      "type": "SCALAR"
    },
    {
      "bufferView": 2,
      "byteOffset": 217032,
      "componentType": 5126,
      "count": 21433,
      "max": [
        4.482094764709473,
        17.115915298461914,
        2.934483766555786
      ],
      "min": [
        -4.482094764709473,
        1.3843257427215576,
        -3.1740283966064453
      ],
      "type": "VEC3"
    },
    {
      "bufferView": 2,
      "byteOffset": 474228,
      "componentType": 5126,
      "count": 21433,
      "max": [
        1.0,
        1.0,
        1.0
      ],
      "min": [
        -1.0,
        -1.0,
        -1.0
      ],
      "type": "VEC3"
    },
    {
      "bufferView": 1,
      "byteOffset": 72344,
      "componentType": 5126,
      "count": 21433,
      "max": [
        1.0,
        0.9978883862495422
      ],
      "min": [
        0.0,
        0.0
      ],
      "type": "VEC2"
    },
    {
      "bufferView": 0,
      "byteOffset": 90456,
      "componentType": 5125,
      "count": 92088,
      "type": "SCALAR"
    },
    {
      "bufferView": 2,
      "byteOffset": 731424,
      "componentType": 5126,
      "count": 1434,
      "max": [
        4.294747829437256,
        10.629149436950684,
        1.7035996913909912
      ],
      "min": [
        -4.294747352600098,
        1.4312710762023926,
        -1.8033148050308228
      ],
      "type": "VEC3"
    },
    {
      "bufferView": 2,
      "byteOffset": 748632,
      "componentType": 5126,
      "count": 1434,
      "max": [
        0.9999046325683594,
        0.9839159250259399,
        0.9999074339866638
      ],
      "min": [
        -0.9999064207077026,
        -0.9991064071655273,
        -0.9997659921646118
      ],
      "type": "VEC3"
    },
    {
      "bufferView": 1,
      "byteOffset": 243808,
      "componentType": 5126,
      "count": 1434,
      "max": [
        0.9958145022392273,
        0.9569779634475708
      ],
      "min": [
        0.0,
        0.0
      ],
      "type": "VEC2"
    },
    {
      "bufferView": 0,
      "byteOffset": 458808,
      "componentType": 5125,
      "count": 4284,
      "type": "SCALAR"
    },
    {
      "bufferView": 2,
      "byteOffset": 765840,
      "componentType": 5126,
      "count": 437,
      "max": [
        0.6733115315437317,
        0.5277547836303711,
        0.9341344833374023
      ],
      "min": [
        -0.6733115315437317,
        -0.44205141067504883,
        0.5748224854469299
      ],
      "type": "VEC3"
    },
    {
      "bufferView": 2,
      "byteOffset": 771084,
      "componentType": 5126,
      "count": 437,
      "max": [
        0.5936110019683838,
        0.4646904468536377,
        1.0
      ],
      "min": [
        -0.5936110019683838,
        -0.3758467137813568,
        0.7154474258422852
      ],
      "type": "VEC3"
    },
    {
      "bufferView": 1,
      "byteOffset": 255280,
      "componentType": 5126,
      "count": 437,
      "max": [
        0.9265645146369934,
        0.8086581230163574
      ],
      "min": [
        0.03682929277420044,
        0.1678919494152069
      ],
      "type": "VEC2"
    },
    {
      "bufferView": 0,
      "byteOffset": 475944,
      "componentType": 5125,
      "count": 2376,
      "type": "SCALAR"
    },
    {
      "bufferView": 2,
      "byteOffset": 776328,
      "componentType": 5126,
      "count": 96,
      "max": [
        0.6902272701263428,
        0.5356640815734863,
        0.6726721525192261
      ],
      "min": [
        -0.6902272701263428,
        -0.44201016426086426,
        0.5748224854469299
      ],
      "type": "VEC3"
    },
    {
      "bufferView": 2,
      "byteOffset": 777480,
      "componentType": 5126,
      "count": 96,
      "max": [
        0.5455807447433472,
        0.45092809200286865,
        0.9946909546852112
      ],
      "min": [
        -0.5455802083015442,
        -0.471782386302948,
        0.7797579169273376
      ],
      "type": "VEC3"
    },
    {
      "bufferView": 1,
      "byteOffset": 258776,
      "componentType": 5126,
      "count": 96,
      "max": [
        0.9377407431602478,
        0.8138839602470398
      ],
      "min": [
        0.025652825832366943,
        0.16791924834251404
      ],
      "type": "VEC2"
    },
    {
      "bufferView": 0,
      "byteOffset": 485448,
      "componentType": 5125,
      "count": 276,
      "type": "SCALAR"
    }
  ],
  "asset": {
    "extras": {
      "author": "JuanitoDuran (https://sketchfab.com/JuanitoDuran)",
      "license": "CC-BY-4.0 (http://creativecommons.org/licenses/by/4.0/)",
      "source": "https://sketchfab.com/3d-models/robotpunk-2077-8150963ee54649db8208e550d9b7ef6e",
      "title": "RobotPunk 2077"
    },
    "generator": "Sketchfab-10.50.0",
    "version": "2.0"
  },
  "bufferViews": [
    {
      "buffer": 0,
      "byteLength": 486552,
      "name": "floatBufferViews",
      "target": 34963
    },
    {
      "buffer": 0,
      "byteLength": 259544,
      "byteOffset": 486552,
      "byteStride": 8,
      "name": "floatBufferViews",
      "target": 34962
    },
    {
      "buffer": 0,
      "byteLength": 778632,
      "byteOffset": 746096,
      "byteStride": 12,
      "name": "floatBufferViews",
      "target": 34962
    }
  ],
  "buffers": [
    {
      "byteLength": 1524728,
      "uri": "scene.bin"
    }
  ],
  "images": [
    {
      "uri": "textures/Lighting_baseColor.png"
    },
    {
      "uri": "textures/Lighting_metallicRoughness.png"
    },
    {
      "uri": "textures/Cresta_baseColor.png"
    },
    {
      "uri": "textures/Cresta_metallicRoughness.png"
    },
    {
      "uri": "textures/Arti_baseColor.png"
    },
    {
      "uri": "textures/Arti_metallicRoughness.png"
    },
    {
      "uri": "textures/Cuerpo_baseColor.png"
    },
    {
      "uri": "textures/Cuerpo_metallicRoughness.png"
    },
    {
      "uri": "textures/Cara_baseColor.jpeg"
    },
    {
      "uri": "textures/Cara_emissive.jpeg"
    }
  ],
  "materials": [
    {
      "doubleSided": true,
      "emissiveFactor": [
        1.0,
        1.0,
        1.0
      ],
      "emissiveTexture": {
        "index": 0
      },
      "name": "Lighting",
      "pbrMetallicRoughness": {
        "baseColorTexture": {
          "index": 0
        },
        "metallicRoughnessTexture": {
          "index": 1
        }
      }
    },
    {
      "doubleSided": true,
      "emissiveFactor": [
        1.0,
        1.0,
        1.0
      ],
      "emissiveTexture": {
        "index": 2
      },
      "name": "Cresta",
      "pbrMetallicRoughness": {
        "baseColorTexture": {
          "index": 2
        },
        "metallicRoughnessTexture": {
          "index": 3
        }
      }
    },
    {
      "doubleSided": true,
      "name": "Arti",
      "pbrMetallicRoughness": {
        "baseColorTexture": {
          "index": 4
        },
        "metallicRoughnessTexture": {
          "index": 5
        }
      }
    },
    {
      "doubleSided": true,
      "name": "Cuerpo",
      "pbrMetallicRoughness": {
        "baseColorTexture": {
          "index": 6
        },
        "metallicFactor": 0.9988584474885845,
        "metallicRoughnessTexture": {
          "index": 7
        }
      }
    },
    {
      "doubleSided": true,
      "emissiveFactor": [
        1.0,
        1.0,
        1.0
      ],
      "emissiveTexture": {
        "index": 9
      },
      "name": "Cara",
      "pbrMetallicRoughness": {
        "baseColorTexture": {
          "index": 8
        },
        "metallicFactor": 0.73133082830199,
        "roughnessFactor": 0.21451610941879626
      }
    }
  ],
  "meshes": [
    {
      "name": "pTorus3_Lighting_0",
      "primitives": [
        {
          "attributes": {
            "NORMAL": 1,
            "POSITION": 0,
            "TEXCOORD_0": 2
          },
          "indices": 3,
          "material": 0,
          "mode": 4
        }
      ]
    },
    {
      "name": "pCube20_Cresta_0",
      "primitives": [
        {
          "attributes": {
            "NORMAL": 5,
            "POSITION": 4,
            "TEXCOORD_0": 6
          },
          "indices": 7,
          "material": 1,
          "mode": 4
        }
      ]
    },
    {
      "name": "polySurface6_Arti_0",
      "primitives": [
        {
          "attributes": {
            "NORMAL": 9,
            "POSITION": 8,
            "TEXCOORD_0": 10
          },
          "indices": 11,
          "material": 2,
          "mode": 4
        }
      ]
    },
    {
      "name": "polySurface7_Cuerpo_0",
      "primitives": [
        {
          "attributes": {
            "NORMAL": 13,
            "POSITION": 12,
            "TEXCOORD_0": 14
          },
          "indices": 15,
          "material": 3,
          "mode": 4
        }
      ]
    },
    {
      "name": "polySurface7_Lighting_0",
      "primitives": [
        {
          "attributes": {
            "NORMAL": 17,
            "POSITION": 16,
            "TEXCOORD_0": 18
          },
          "indices": 19,
          "material": 0,
          "mode": 4
        }
      ]
    },
    {
      "name": "polySurface5_Cara_0",
      "primitives": [
        {
          "attributes": {
            "NORMAL": 21,
            "POSITION": 20,
            "TEXCOORD_0": 22
          },
          "indices": 23,
          "material": 4,
          "mode": 4
        }
      ]
    },
    {
      "name": "polySurface5_Cuerpo_0",
      "primitives": [
        {
          "attributes": {
            "NORMAL": 25,
            "POSITION": 24,
            "TEXCOORD_0": 26
          },
          "indices": 27,
          "material": 3,
          "mode": 4
        }
      ]
    }
  ],
  "nodes": [
    {
      "children": [
        1
      ],
      "matrix": [
        1.0,
        0.0,
        0.0,
        0.0,
        0.0,
        2.220446049250313e-16,
        -1.0,
        0.0,
        0.0,
        1.0,
        2.220446049250313e-16,
        0.0,
        0.0,
        0.0,
        0.0,
        1.0
      ],
      "name": "Sketchfab_model"
    },
    {
      "children": [
        2
      ],
      "matrix": [
        1.0,
        0.0,
        0.0,
        0.0,
        0.0,
        0.0,
        1.0,
        0.0,
        0.0,
        -1.0,
        0.0,
        0.0,
        0.0,
        0.0,
        0.0,
        1.0
      ],
      "name": "7ad9b09411944cfab9310f341128a2e7.fbx"
    },
    {
      "children": [
        3,
        5,
        7,
        9,
        12
      ],
      "name": "RootNode"
    },
    {
      "children": [
        4
      ],
      "matrix": [
        0.8221428394317627,
        0.0,
        0.0,
        0.0,
        0.0,
        0.8221428394317627,
        0.0,
        0.0,
        0.0,
        0.0,
        0.8221428394317627,
        0.0,
        0.005666797049343586,
        1.3791757822036743,
        -6.411709385645281e-09,
        1.0
      ],
      "name": "pTorus3"
    },
    {
      "mesh": 0,
      "name": "pTorus3_Lighting_0"
    },
    {
      "children": [
        6
      ],
      "name": "pCube20"
    },
    {
      "mesh": 1,
      "name": "pCube20_Cresta_0"
    },
    {
      "children": [
        8
      ],
      "name": "polySurface6"
    },
    {
      "mesh": 2,
      "name": "polySurface6_Arti_0"
    },
    {
      "children": [
        10,
        11
      ],
      "name": "polySurface7"
    },
    {
      "mesh": 3,
      "name": "polySurface7_Cuerpo_0"
    },
    {
      "mesh": 4,
      "name": "polySurface7_Lighting_0"
    },
    {
      "children": [
        13,
        14
      ],
      "matrix": [
        3.5733227729797363,
        0.0,
        0.0,
        0.0,
        0.0,
        3.177856206893921,
        0.0,
        0.0,
        0.0,
        0.0,
        3.177856206893921,
        0.0,
        0.0,
        13.939403533935547,
        0.0,
        1.0
      ],
      "name": "polySurface5"
    },
    {
      "mesh": 5,
      "name": "polySurface5_Cara_0"
    },
    {
      "mesh": 6,
      "name": "polySurface5_Cuerpo_0"
    }
  ],
  "samplers": [
    {
      "magFilter": 9729,
      "minFilter": 9987,
      "wrapS": 10497,
      "wrapT": 10497
    }
  ],
  "scene": 0,
  "scenes": [
    {
      "name": "Sketchfab_Scene",
      "nodes": [
        0
      ]
    }
  ],
  "textures": [
    {
      "sampler": 0,
      "source": 0
    },
    {
      "sampler": 0,
      "source": 1
    },
    {
      "sampler": 0,
      "source": 2
    },
    {
      "sampler": 0,
      "source": 3
    },
    {
      "sampler": 0,
      "source": 4
    },
    {
      "sampler": 0,
      "source": 5
    },
    {
      "sampler": 0,
      "source": 6
    },
    {
      "sampler": 0,
      "source": 7
    },
    {
      "sampler": 0,
      "source": 8
    },
    {
      "sampler": 0,
      "source": 9
    }
  ]
}
